<?xml version="1.0" encoding="utf-8"?>
<!-- Generator: Adobe Illustrator 17.1.0, SVG Export Plug-In . SVG Version: 6.00 Build 0)  -->
<!DOCTYPE svg PUBLIC "-//W3C//DTD SVG 1.1//EN" "http://www.w3.org/Graphics/SVG/1.1/DTD/svg11.dtd">
<svg version="1.1" id="Layer_1" xmlns="http://www.w3.org/2000/svg" xmlns:xlink="http://www.w3.org/1999/xlink" x="0px" y="0px"
	 viewBox="0 0 792 104.301" enable-background="new 0 0 792 104.301" xml:space="preserve">
<g>
	<g>
		<path fill="#FFFFFF" d="M753.409,87.634h22.892v-4.161h-18.313V14.796h-4.578V87.634z M719.5,63.077l8.638-41.412l8.634,41.412
			H719.5z M709.82,87.634h4.581l4.266-20.396h18.938l4.266,20.396h4.787l-15.922-73.149h-4.992L709.82,87.634z M690.938,88.154
			h4.576l15.193-73.358h-4.578l-12.798,64.721L680.53,14.796h-4.783L690.938,88.154z M664.194,87.634h4.578V14.796h-4.578V87.634z
			 M641.44,87.634h4.578V18.961h11.864v-4.165h-28.304v4.165h11.861V87.634z M612.425,88.675c8.429,0,14.774-5.932,14.774-15.193
			v-0.207c0-7.806-3.121-13.734-11.967-24.87c-8.114-10.299-10.301-14.462-10.301-19.873v-0.208c0-6.034,3.954-10.197,9.573-10.197
			c3.537,0,7.182,1.352,11.133,4.059v-5.203c-3.536-2.081-6.867-3.226-11.03-3.226c-7.908,0-14.256,6.243-14.256,14.879v0.209
			c0,6.659,2.395,10.821,12.073,23.828c8.012,10.821,10.194,14.881,10.194,20.914v0.209c0,6.449-3.951,10.509-10.092,10.509
			c-3.538,0-7.698-1.456-12.693-4.682v5.201C604.203,87.322,608.156,88.675,612.425,88.675 M569.054,87.634h25.077v-4.161h-20.5
			V52.984h18.42v-4.162h-18.42V18.961h20.188v-4.165h-24.766V87.634z M538.806,87.634h4.578V54.026h17.483v-4.163h-17.483V18.961
			h19.252v-4.165h-23.83V87.634z M316.458,87.634h4.581l11.756-33.817l11.967,33.817h4.681l-13.838-38.812l12.173-34.026h-4.578
			l-10.406,29.449l-10.197-29.449h-4.786l12.382,34.443L316.458,87.634z M286.03,63.077l8.635-41.412l8.637,41.412H286.03z
			 M276.351,87.634h4.58l4.266-20.396h18.937l4.266,20.396h4.787l-15.922-73.149h-4.993L276.351,87.634z M252.222,87.634h4.579
			V54.026h17.48v-4.163h-17.48V18.961h19.249v-4.165h-23.828V87.634z M237.54,87.634h4.578V14.796h-4.578V87.634z M208.583,87.634
			h22.891v-4.161H213.16V14.796h-4.577V87.634z M174.673,63.077l8.637-41.412l8.637,41.412H174.673z M164.996,87.634h4.578
			l4.266-20.396h18.938l4.268,20.396h4.785L185.91,14.485h-4.994L164.996,87.634z M126.612,87.634h4.579V53.089h22.475v34.545h4.581
			V14.796h-4.581v34.129h-22.475V14.796h-4.579V87.634z"/>
	</g>
	<rect x="25.253" y="23.804" fill="#FFFFFF" width="75.393" height="57.697"/>
	<g>
		<path fill="#54B948" d="M72.901,72.203H53.568V37.188h9.668v29.013h9.336c6.663,0,9.345-4.671,9.345-16.002
			c0-11.672-3.346-15.009-9.685-15.009H50.907v37.013h-9.667V35.19H26.896v-6.328h48.361c11.647,0,16.976,6.002,16.976,21.005
			C92.232,69.87,83.9,72.203,72.901,72.203 M18.237,88.196h83.336V13.859H18.237V88.196z"/>
		<path fill="#FFFFFF" d="M485.449,87.424h34.196V75.459h-16.754l16.754-50.777V14.588h-33.572v11.968h19.63L485.449,77.33V87.424z
			 M445.87,87.424h34.196V75.459h-16.751l16.751-50.777V14.588h-33.571v11.968h19.628L445.87,77.33V87.424z M413.223,61.516
			l5.703-29.289l5.602,29.289H413.223z M396.78,87.424h12.28l2.288-14.463h15.053l2.392,14.463h12.694L427.648,14.38h-17.029
			L396.78,87.424z M373.989,88.049c12.377-0.2,19.233-6.035,19.233-18.938V14.588h-12.903v53.588c0,5.307-3.408,7.575-8.307,7.491
			c-2.08-0.035-8.25-1.734-10.227-2.463v12.592C364.074,86.316,369.476,88.123,373.989,88.049"/>
	</g>
</g>
</svg>
